# xmcd
#
# Track frame offsets: 
#        150
#        26540
#        49762
#        73620
#        100565
#        125782
#        145485
#        169275
#
# Disc length: 2576 seconds
#
# Revision: 3
# Processed by: cddbd v1.5.2PL0 Copyright (c) Steve Scherf et al.
# Submitted via: ExactAudioCopy v0.99pb5
#
DISCID=710a0e08
DTITLE=Ginger Baker - Unseen Rain
DYEAR=1992
DGENRE=Jazz
TTITLE0=Rain and the Rhinoceros
TTITLE1=Worlds Within Worlds
TTITLE2=Open Secret
TTITLE3=The Great Festival of Destruction
TTITLE4=The Time of no Room
TTITLE5=The Sign
TTITLE6=Mirror of Steel
TTITLE7=To Each His Darkness
EXTD=YEAR: 1992
EXTT0=
EXTT1=
EXTT2=
EXTT3=
EXTT4=
EXTT5=
EXTT6=
EXTT7=
PLAYORDER=
